# xmcd
#
# Track frame offsets:
#	187
#	25512
#	50287
#	68290
#	86845
#	115912
#	131585
#	146475
#	169387
#
# Disc length: 2346 seconds
#
# Revision: 1
# Processed by: cddbd v1.5PL3 Copyright (c) Steve Scherf et al.
# Submitted via: CDex 1.50Beta5
#
DISCID=71092809
DTITLE=King Sunny Ade - Synchro System
DYEAR=1900
DGENRE=Other
TTITLE0=Synchro Feelings - Ilako
TTITLE1=Mo Ti Mo
TTITLE2=Penkele
TTITLE3=Maajo
TTITLE4=Synchro System
TTITLE5=E Saiye Re
TTITLE6=Tolongo
TTITLE7=E Wele
TTITLE8=Synchro Reprise
EXTD=
EXTT0=
EXTT1=
EXTT2=
EXTT3=
EXTT4=
EXTT5=
EXTT6=
EXTT7=
EXTT8=
PLAYORDER=
